# xmcd
#
# Track frame offsets:
#	150
#	20328
#	40224
#	61317
#	92796
#	113523
#	130970
#	149755
#	172466
#	191906
#	208724
#	224757
#	241117
#	277075
#
# Disc length: 3954 seconds
#
# Revision: 1
# Processed by: cddbd v1.4PL0 Copyright (c) Steve Scherf et al.
# Submitted via: audiograbber 1.82.02
#
DISCID=e30f700e
DTITLE=Sergio Cammariere - Dalla pace del mare lontano
DYEAR=1900
DGENRE=
TTITLE0=Sorella mia
TTITLE1=Tempo perduto
TTITLE2=Via da questo mare
TTITLE3=Cambiamenti del mondo
TTITLE4=Dalla pace del mare lontano
TTITLE5=Apri la porta
TTITLE6=Canto nel vento
TTITLE7=Le porte del sogno
TTITLE8=Il mare
TTITLE9=Per ricordarmi di te
TTITLE10=Paese di goal
TTITLE11=Vita d'artista
TTITLE12=Cantautore piccolino
TTITLE13=Tutto quello che un uomo
EXTD=
EXTT0=
EXTT1=
EXTT2=
EXTT3=
EXTT4=
EXTT5=
EXTT6=
EXTT7=
EXTT8=
EXTT9=
EXTT10=
EXTT11=
EXTT12=
EXTT13=
PLAYORDER=
